<svg width="54" height="54" viewBox="0 0 54 54" fill="none" xmlns="http://www.w3.org/2000/svg">
<path d="M32.8124 47.5022C31.7475 48.5589 30.0276 48.5522 28.9709 47.4874C28.694 47.2084 28.4902 46.8845 28.3592 46.5393L28.3665 46.5564L27.6718 44.7922C27.6257 44.6597 27.5463 44.5294 27.4359 44.4182C27.2413 44.2221 26.9867 44.1218 26.7307 44.1175L26.731 44.1174C26.47 44.1154 26.2083 44.2134 26.0085 44.4118C25.9019 44.5175 25.8237 44.6411 25.7739 44.7729L25.7766 44.7667L25.1121 46.5378C24.9861 46.878 24.7754 47.2125 24.4872 47.4985C23.4222 48.5554 21.7023 48.5488 20.6456 47.4839C20.451 47.2878 20.2924 47.0696 20.1699 46.8373L20.1799 46.8545L20.1739 46.8484C17.5078 40.9781 16.3518 34.8942 16.575 28.8528L16.5763 28.8227C16.5802 23.8208 17.1822 18.8242 18.3816 13.945L18.4665 13.642C19.1593 10.1047 20.7643 6.61603 23.2594 3.6201L23.3193 3.55074C23.3791 3.48337 23.4514 3.40711 23.5265 3.33263C24.4569 2.40933 25.6553 1.92105 26.8691 1.86684L26.8635 1.86719C28.0733 1.91598 29.2725 2.40626 30.196 3.33676C30.2667 3.408 30.3347 3.48081 30.4003 3.55514L30.3911 3.54498C32.8254 5.97358 34.3475 10.3973 35.1957 13.6805C36.4579 18.8814 37.0371 23.8893 37.0182 28.8949L37.0182 28.8948C37.235 34.9349 36.0474 40.9799 33.4589 46.5315L33.3305 46.7796C33.2106 47.0297 33.0348 47.2804 32.8125 47.502L32.8123 47.5022L32.8124 47.5022ZM29.2909 44.1978L29.9724 45.9267C30.0178 46.0486 30.0931 46.1688 30.1958 46.2723C30.5837 46.6632 31.215 46.6656 31.6059 46.2777C31.6905 46.1938 31.7569 46.0984 31.8051 45.9965L31.8017 46.003L31.8212 45.9642C34.4026 40.4223 35.5256 34.6491 35.3104 28.9159L35.3089 28.8809C35.3261 24.0197 34.7626 19.156 33.618 14.4031L33.5358 14.1045C32.9163 10.8491 31.4773 7.62712 29.237 4.83419L29.1767 4.7621C29.128 4.70452 29.0687 4.63989 29.0064 4.5771C28.4094 3.97558 27.6415 3.64697 26.8578 3.59186L26.8629 3.59227C26.0823 3.65121 25.3121 3.98039 24.7082 4.57969C24.6408 4.64656 24.5767 4.71548 24.5161 4.78633L24.5242 4.77715C20.9546 8.31946 18.3326 18.4302 18.2939 28.8256C18.0737 34.6222 19.1669 40.4304 21.5739 45.7941L21.6965 46.0397C21.7376 46.1176 21.7953 46.1967 21.8659 46.2679C22.2538 46.6588 22.8851 46.6612 23.276 46.2733C23.3839 46.1663 23.4622 46.0407 23.5109 45.9068L23.5084 45.9129L24.1705 44.1392C24.2965 43.8031 24.5058 43.4722 24.7912 43.189L24.793 43.1872L24.7929 43.1873C25.8654 42.1302 27.5911 42.1391 28.6524 43.2084C28.9445 43.5028 29.1559 43.8469 29.2866 44.2133L29.2798 44.1965L29.2909 44.1978ZM27.6298 36.3634L25.9181 36.3666L26.0182 10.2195L27.7299 10.2358L27.6298 36.3634Z" fill="#F6AB3F"/>
</svg>
